<svg width="27" height="34" viewBox="0 0 27 34" fill="none" xmlns="http://www.w3.org/2000/svg">
<path d="M26.2643 13.3415C26.2638 15.4766 25.7428 17.5794 24.7466 19.4679C23.7503 21.3563 22.3088 22.9734 20.5467 24.1792C18.7847 25.385 16.7554 26.1432 14.6344 26.388C12.5133 26.6329 10.3646 26.357 8.3742 25.5844V13.3415C8.37321 14.3959 8.68498 15.4269 9.27004 16.3041C9.85511 17.1813 10.6872 17.8652 11.661 18.2694C12.6349 18.6736 13.7067 18.7798 14.741 18.5747C15.7752 18.3696 16.7254 17.8624 17.4713 17.1172C18.2172 16.372 18.7254 15.4222 18.9314 14.3882C19.1375 13.3541 19.0322 12.2822 18.629 11.308C18.2257 10.3338 17.5425 9.50103 16.6659 8.91514C15.7893 8.32926 14.7586 8.01653 13.7042 8.01653C13.0043 8.0161 12.3111 8.15361 11.6644 8.42121C11.0176 8.68881 10.4299 9.08125 9.93494 9.57609C9.43994 10.0709 9.04731 10.6585 8.77951 11.3052C8.51171 11.9518 8.37398 12.6449 8.3742 13.3449V12.9645H0.00798798C0.117112 9.52269 1.57384 6.26146 4.06437 3.88337C6.5549 1.50528 9.8799 0.200646 13.3231 0.250525C16.7663 0.300404 20.0521 1.7008 22.4727 4.15004C24.8933 6.59927 26.2549 9.90133 26.2643 13.3449V13.3415Z" fill="#77AEF6"/>
<path d="M8.37452 22.8839V33.514H0V13.3417C0 17.6918 3.47139 21.4007 8.37452 22.8839Z" fill="#77AEF6"/>
<path d="M8.37453 12.9614V25.5846C5.90654 24.6269 3.78596 22.9451 2.29134 20.76C0.796715 18.575 -0.00203799 15.989 3.90511e-06 13.3417C3.90511e-06 13.2138 6.94612e-06 13.0909 0.00831171 12.9614H8.37453Z" fill="#4482C2"/>
</svg>
